HIERARCHY
ROOT Hips
{
  OFFSET 5.84602e-005 68.8428 3.50346
  CHANNELS 6 Xposition Yposition Zposition Zrotation Xrotation Yrotation
  JOINT Spine
  {
    OFFSET 0 8.597 -4.6522
    CHANNELS 3 Zrotation Xrotation Yrotation
    JOINT Spine1
    {
      OFFSET 0 7.8454 0.4098
      CHANNELS 3 Zrotation Xrotation Yrotation
      JOINT Spine2
      {
        OFFSET 0 9.7078 -2.1609
        CHANNELS 3 Zrotation Xrotation Yrotation
        JOINT Neck
        {
          OFFSET 0 21.8761 -0.4549
          CHANNELS 3 Zrotation Xrotation Yrotation
          JOINT Head
          {
            OFFSET 0 12.3537 3.3602
            CHANNELS 3 Zrotation Xrotation Yrotation
            End Site
            {
              OFFSET 0.0001 18.9506 0.5657
            }
          }
        }
        JOINT LeftShoulder
        {
          OFFSET 2.2086 21.1115 7.2329
          CHANNELS 3 Zrotation Xrotation Yrotation
          JOINT LeftArm
          {
            OFFSET 13.1193 3.0282 -4.8998
            CHANNELS 3 Zrotation Xrotation Yrotation
            JOINT LeftForeArm
            {
              OFFSET 27.4081 -0.0973053 -0.2375
              CHANNELS 3 Zrotation Xrotation Yrotation
              JOINT LeftHand
              {
                OFFSET 22.8641 0.0662994 -0.1369
                CHANNELS 3 Zrotation Xrotation Yrotation
                JOINT LeftHandIndex1
                {
                  OFFSET 8.8614 0.775009 2.4612
                  CHANNELS 3 Zrotation Xrotation Yrotation
                  JOINT LeftHandIndex2
                  {
                    OFFSET 3.3146 -0.808304 0.5841
                    CHANNELS 3 Zrotation Xrotation Yrotation
                    JOINT LeftHandIndex3
                    {
                      OFFSET 2.2628 -0.552002 0.3989
                      CHANNELS 3 Zrotation Xrotation Yrotation
                      End Site
                      {
                        OFFSET 1.6102 -0.4807 0.2612
                      }
                    }
                  }
                }
                JOINT LeftHandMiddle1
                {
                  OFFSET 8.9937 0.895004 0.2143
                  CHANNELS 3 Zrotation Xrotation Yrotation
                  JOINT LeftHandMiddle2
                  {
                    OFFSET 4.0984 0.0113983 -0.0242
                    CHANNELS 3 Zrotation Xrotation Yrotation
                    JOINT LeftHandMiddle3
                    {
                      OFFSET 2.2716 0.00689697 -0.0138001
                      CHANNELS 3 Zrotation Xrotation Yrotation
                      End Site
                      {
                        OFFSET 2.0404 -0.1441 0.0027
                      }
                    }
                  }
                }
                JOINT LeftHandRing1
                {
                  OFFSET 8.5234 0.597198 -2.0164
                  CHANNELS 3 Zrotation Xrotation Yrotation
                  JOINT LeftHandRing2
                  {
                    OFFSET 3.7188 -0.188293 -0.2328
                    CHANNELS 3 Zrotation Xrotation Yrotation
                    JOINT LeftHandRing3
                    {
                      OFFSET 2.1191 -0.106598 -0.1332
                      CHANNELS 3 Zrotation Xrotation Yrotation
                      End Site
                      {
                        OFFSET 1.8737 -0.2304 -0.0886
                      }
                    }
                  }
                }
                JOINT LeftHandPinky1
                {
                  OFFSET 7.9094 -0.601089 -3.4825
                  CHANNELS 3 Zrotation Xrotation Yrotation
                  JOINT LeftHandPinky2
                  {
                    OFFSET 2.2874 -0.477005 -0.6314
                    CHANNELS 3 Zrotation Xrotation Yrotation
                    JOINT LeftHandPinky3
                    {
                      OFFSET 1.6774 -0.349396 -0.4633
                      CHANNELS 3 Zrotation Xrotation Yrotation
                      End Site
                      {
                        OFFSET 1.4888 -0.4091 -0.3416
                      }
                    }
                  }
                }
                JOINT LeftHandThumb1
                {
                  OFFSET 1.833 -1.3875 1.3896
                  CHANNELS 3 Zrotation Xrotation Yrotation
                  JOINT LeftHandThumb2
                  {
                    OFFSET 3.4129 -1.121 2.5732
                    CHANNELS 3 Zrotation Xrotation Yrotation
                    JOINT LeftHandThumb3
                    {
                      OFFSET 2.2474 -0.804199 1.6192
                      CHANNELS 3 Zrotation Xrotation Yrotation
                      End Site
                      {
                        OFFSET 1.6527 -0.5689 1.1317
                      }
                    }
                  }
                }
              }
            }
          }
        }
        JOINT RightShoulder
        {
          OFFSET -2.2086 21.1115 7.2329
          CHANNELS 3 Zrotation Xrotation Yrotation
          JOINT RightArm
          {
            OFFSET -13.1216 3.0287 -4.9007
            CHANNELS 3 Zrotation Xrotation Yrotation
            JOINT RightForeArm
            {
              OFFSET -27.4081 -0.0973053 -0.2375
              CHANNELS 3 Zrotation Xrotation Yrotation
              JOINT RightHand
              {
                OFFSET -22.8641 0.0664063 -0.1369
                CHANNELS 3 Zrotation Xrotation Yrotation
                JOINT RightHandIndex1
                {
                  OFFSET -8.8614 0.774994 2.4612
                  CHANNELS 3 Zrotation Xrotation Yrotation
                  JOINT RightHandIndex2
                  {
                    OFFSET -3.3146 -0.808304 0.5841
                    CHANNELS 3 Zrotation Xrotation Yrotation
                    JOINT RightHandIndex3
                    {
                      OFFSET -2.2628 -0.552002 0.3989
                      CHANNELS 3 Zrotation Xrotation Yrotation
                      End Site
                      {
                        OFFSET -1.6102 -0.4807 0.2612
                      }
                    }
                  }
                }
                JOINT RightHandMiddle1
                {
                  OFFSET -8.9937 0.894989 0.2143
                  CHANNELS 3 Zrotation Xrotation Yrotation
                  JOINT RightHandMiddle2
                  {
                    OFFSET -4.0984 0.0113983 -0.0242
                    CHANNELS 3 Zrotation Xrotation Yrotation
                    JOINT RightHandMiddle3
                    {
                      OFFSET -2.2716 0.00691223 -0.0138001
                      CHANNELS 3 Zrotation Xrotation Yrotation
                      End Site
                      {
                        OFFSET -2.0404 -0.1441 0.0027
                      }
                    }
                  }
                }
                JOINT RightHandRing1
                {
                  OFFSET -8.5234 0.597198 -2.0164
                  CHANNELS 3 Zrotation Xrotation Yrotation
                  JOINT RightHandRing2
                  {
                    OFFSET -3.7188 -0.188309 -0.2328
                    CHANNELS 3 Zrotation Xrotation Yrotation
                    JOINT RightHandRing3
                    {
                      OFFSET -2.1191 -0.106598 -0.1332
                      CHANNELS 3 Zrotation Xrotation Yrotation
                      End Site
                      {
                        OFFSET -1.8737 -0.2304 -0.0886
                      }
                    }
                  }
                }
                JOINT RightHandPinky1
                {
                  OFFSET -7.9094 -0.601105 -3.4825
                  CHANNELS 3 Zrotation Xrotation Yrotation
                  JOINT RightHandPinky2
                  {
                    OFFSET -2.2874 -0.477005 -0.6314
                    CHANNELS 3 Zrotation Xrotation Yrotation
                    JOINT RightHandPinky3
                    {
                      OFFSET -1.6774 -0.349396 -0.4633
                      CHANNELS 3 Zrotation Xrotation Yrotation
                      End Site
                      {
                        OFFSET -1.4888 -0.4091 -0.3416
                      }
                    }
                  }
                }
                JOINT RightHandThumb1
                {
                  OFFSET -1.833 -1.38751 1.3896
                  CHANNELS 3 Zrotation Xrotation Yrotation
                  JOINT RightHandThumb2
                  {
                    OFFSET -3.41299 -1.12099 2.5732
                    CHANNELS 3 Zrotation Xrotation Yrotation
                    JOINT RightHandThumb3
                    {
                      OFFSET -2.24741 -0.804108 1.6192
                      CHANNELS 3 Zrotation Xrotation Yrotation
                      End Site
                      {
                        OFFSET -1.6527 -0.5689 1.1317
                      }
                    }
                  }
                }
              }
            }
          }
        }
      }
    }
  }
  JOINT RightUpLeg
  {
    OFFSET -9.1966 3.8861 -0.7581
    CHANNELS 3 Zrotation Xrotation Yrotation
    JOINT RightLeg
    {
      OFFSET -0.7359 -41.0265 0
      CHANNELS 3 Zrotation Xrotation Yrotation
      JOINT RightFoot
      {
        OFFSET 0 -40.2855 0
        CHANNELS 3 Zrotation Xrotation Yrotation
        JOINT RightToeBase
        {
          OFFSET 0 -5.6122 11.7359
          CHANNELS 3 Zrotation Xrotation Yrotation
          End Site
          {
            OFFSET 0 0 7.8731
          }
        }
      }
    }
  }
  JOINT LeftUpLeg
  {
    OFFSET 9.1965 3.8864 -0.7581
    CHANNELS 3 Zrotation Xrotation Yrotation
    JOINT LeftLeg
    {
      OFFSET 0.7359 -41.0268 0
      CHANNELS 3 Zrotation Xrotation Yrotation
      JOINT LeftFoot
      {
        OFFSET 0 -40.2855 0
        CHANNELS 3 Zrotation Xrotation Yrotation
        JOINT LeftToeBase
        {
          OFFSET 0 -5.6122 11.7359
          CHANNELS 3 Zrotation Xrotation Yrotation
          End Site
          {
            OFFSET 0 0 7.8731
          }
        }
      }
    }
  }
}
MOTION
Frames:	4
Frame Time:	0.0333333
39.977 2.99187 3.92364 -180 -89.9981 -180 -2.14559 17.7251 -1.13053 -4.23207 35.4793 -1.64993 -4.23207 35.4793 -1.64993 -2.2629e-005 12.0836 7.61176e-006 -2.22295e-008 -7.82136 1.86373e-006 -8.101 -3.88912 -2.69142 -83.8058 -4.80693 -54.7555 -0.693202 17.5589 -6.6468 -4.57885 2.86361 25.4903 3.50738e-007 -5.5721e-007 -5.38444e-007 1.75369e-006 -2.78605e-006 -2.69222e-006 7.01475e-007 -1.11442e-006 -1.07689e-006 3.50738e-007 -5.5721e-007 -5.38444e-007 -0.0146069 -8.81813e-005 -2.65068e-006 7.01493e-007 -1.11428e-006 -1.07703e-006 3.50738e-007 -5.5721e-007 -5.38444e-007 -0.0187119 -0.00117555 5.07823e-005 7.01488e-007 -1.11424e-006 -1.07708e-006 3.50738e-007 -5.5721e-007 -5.38444e-007 -0.0122399 -0.00324507 0.00067883 7.01454e-007 -1.11431e-006 -1.07703e-006 3.50738e-007 -5.5721e-007 -5.38444e-007 1.75369e-006 -2.78605e-006 -2.69222e-006 7.01475e-007 -1.11442e-006 -1.07689e-006 -0.132887 -9.68442 4.37862 60.0229 32.0386 23.5784 48.2405 20.5852 77.2903 -47.0604 16.237 34.0102 -1.59028e-015 2.38542e-015 3.18055e-015 -1.16601e-006 -1.67487e-007 5.31151e-007 -3.18055e-015 0 -1.27222e-014 -1.59028e-015 2.38542e-015 3.18055e-015 0.0149436 -8.66077e-005 -2.68506e-007 -2.34808e-006 -1.85548e-006 1.46099e-006 -1.59028e-015 2.38542e-015 3.18055e-015 0.0190137 -0.0011972 -6.38495e-005 0 1.59028e-015 -0 -1.59028e-015 2.38542e-015 3.18055e-015 0.0123358 -0.0032642 -0.000685516 -1.59028e-015 -7.95139e-016 3.18055e-015 -1.59028e-015 2.38542e-015 3.18055e-015 -1.16601e-006 -1.67487e-007 5.31151e-007 -3.18055e-015 0 -1.27222e-014 -43.6252 -42.298 -0.929036 177.365 76.8962 179.135 -33.0656 25.5508 12.302 1.59028e-015 0 9.54166e-015 42.0457 -6.74023 -4.91481 -36.3032 31.3711 17.1441 18.279 42.0472 13.7151 6.3858e-007 -6.04672e-007 -3.32721e-006 
39.977 2.99187 3.92364 -180 -89.9981 -180 -2.14559 17.7251 -1.13053 -4.23207 35.4793 -1.64992 -4.23207 35.4793 -1.64992 -1.08046e-005 12.0836 2.68617e-006 -3.22656e-007 -7.82135 -9.48107e-007 -8.101 -3.88913 -2.69142 -83.8058 -4.80692 -54.7554 -0.6932 17.5589 -6.64681 -4.57884 2.86359 25.4903 1.76556e-031 -3.18055e-015 3.18055e-015 -7.01474e-007 1.11442e-006 1.07689e-006 -3.18055e-015 -6.36111e-015 -0 1.76556e-031 -3.18055e-015 3.18055e-015 -0.0145968 -8.85946e-005 1.74862e-007 -6.36111e-015 0 1.27222e-014 1.76556e-031 -3.18055e-015 3.18055e-015 -0.0187867 -0.00117718 5.36214e-005 6.36111e-015 -3.18055e-015 -6.36111e-015 1.76556e-031 -3.18055e-015 3.18055e-015 -0.0122939 -0.00325914 0.000682509 -0 0 9.54166e-015 1.76556e-031 -3.18055e-015 3.18055e-015 -7.01474e-007 1.11442e-006 1.07689e-006 -3.18055e-015 -6.36111e-015 -0 -0.132887 -9.68444 4.37862 60.0229 32.0386 23.5783 48.2405 20.5851 77.2903 -47.0604 16.237 34.0102 -1.59028e-015 -2.38542e-015 -3.18055e-015 -1.59028e-015 -3.18055e-015 -0 1.59028e-015 -4.77083e-015 3.18055e-015 -1.59028e-015 -2.38542e-015 -3.18055e-015 0.0150397 -9.48918e-005 -3.20296e-006 1.76556e-031 3.18055e-015 -3.18055e-015 -1.59028e-015 -2.38542e-015 -3.18055e-015 0.0189581 -0.00119215 -5.55123e-005 -1.16778e-006 -1.6729e-007 5.31205e-007 -1.59028e-015 -2.38542e-015 -3.18055e-015 0.0122614 -0.00324076 -0.000676097 -3.18055e-015 -1.59028e-015 -3.18055e-015 -1.59028e-015 -2.38542e-015 -3.18055e-015 -1.59028e-015 -3.18055e-015 -0 1.59028e-015 -4.77083e-015 3.18055e-015 -43.6253 -42.298 -0.929108 177.365 76.8963 179.135 -33.0656 25.5509 12.302 1.51257e-006 6.88041e-007 1.49741e-007 42.0457 -6.7402 -4.91482 -36.3032 31.3711 17.1441 18.279 42.0472 13.7151 7.81737e-007 -3.14465e-007 -1.33507e-007 
39.9784 2.9914 4.0674 -180 -89.9981 -180 -2.13778 17.6085 -1.13818 -4.21059 35.2465 -1.67385 -4.21059 35.2465 -1.67385 1.82921e-005 12.4907 -6.35906e-006 -4.16256e-007 -7.00805 -1.02644e-006 -8.38372 -3.47707 -2.67413 -83.7293 -4.91712 -54.7405 -0.693197 17.5589 -6.64681 -4.6605 2.96882 25.6336 6.36111e-015 -6.36111e-015 6.36111e-015 -3.50885e-007 5.5697e-007 5.38608e-007 -3.50884e-007 5.5697e-007 5.38608e-007 6.36111e-015 -6.36111e-015 6.36111e-015 -0.0146259 -8.65356e-005 3.26147e-006 -3.50894e-007 5.56901e-007 5.38679e-007 6.36111e-015 -6.36111e-015 6.36111e-015 -0.018798 -0.00117841 5.34315e-005 -3.50891e-007 5.56881e-007 5.38703e-007 6.36111e-015 -6.36111e-015 6.36111e-015 -0.0123304 -0.00326266 0.000681419 -3.50874e-007 5.56912e-007 5.38678e-007 6.36111e-015 -6.36111e-015 6.36111e-015 -3.50885e-007 5.5697e-007 5.38608e-007 -3.50884e-007 5.5697e-007 5.38608e-007 -0.132887 -9.68442 4.37862 60.0229 32.0386 23.5784 48.5202 20.4387 76.7588 -46.6343 16.4935 32.5372 2.50431e-006 -1.61603e-006 1.68904e-006 3.52362e-006 3.04713e-008 1.07541e-006 1.02035e-007 2.53718e-006 1.16149e-006 2.50431e-006 -1.61603e-006 1.68904e-006 0.0149548 -9.45083e-005 2.30375e-007 -6.36111e-015 3.97569e-015 3.18055e-015 2.50431e-006 -1.61603e-006 1.68904e-006 0.0190192 -0.00120276 -6.2071e-005 1.59028e-015 -7.95139e-016 9.54166e-015 2.50431e-006 -1.61603e-006 1.68904e-006 0.0122583 -0.00324755 -0.000671804 -3.18055e-015 -4.77083e-015 -9.54166e-015 2.50431e-006 -1.61603e-006 1.68904e-006 3.52362e-006 3.04713e-008 1.07541e-006 1.02035e-007 2.53718e-006 1.16149e-006 -43.8142 -42.3509 -1.04048 177.364 76.8987 179.135 -33.0664 25.5501 12.3012 -2.33428e-006 -2.89178e-006 -6.60222e-007 42.2053 -6.89826 -4.89957 -36.6605 31.6536 17.3364 18.3032 41.8509 13.7674 3.90866e-007 -1.57228e-007 -6.67703e-008 
39.9796 2.99101 4.18503 -180 -89.9981 -180 -2.13139 17.5132 -1.14442 -4.19314 35.0559 -1.69329 -4.19314 35.0559 -1.69329 1.64408e-006 12.8241 1.10474e-006 1.53276e-007 -6.34213 -1.64086e-006 -8.6151 -3.13991 -2.65837 -83.6667 -5.00728 -54.7282 -0.693192 17.5589 -6.64679 -4.72751 3.05476 25.7508 -3.85679e-007 1.53755e-006 -1.59235e-006 3.51011e-007 -5.5677e-007 -5.38742e-007 3.18055e-015 6.36111e-015 -0 -3.85679e-007 1.53755e-006 -1.59235e-006 -0.0146634 -8.48131e-005 -1.92785e-006 3.18055e-015 -3.18055e-015 -6.36111e-015 -3.85679e-007 1.53755e-006 -1.59235e-006 -0.0187801 -0.00117771 6.12805e-005 3.83786e-007 -1.53793e-006 1.5921e-006 -3.85679e-007 1.53755e-006 -1.59235e-006 -0.0122962 -0.0032514 0.000674588 -3.84465e-007 1.53805e-006 -1.59224e-006 -3.85679e-007 1.53755e-006 -1.59235e-006 3.51011e-007 -5.5677e-007 -5.38742e-007 3.18055e-015 6.36111e-015 -0 -0.13289 -9.6844 4.37862 60.0229 32.0386 23.5784 48.7479 20.3175 76.3248 -46.2794 16.6959 31.3263 1.59028e-015 -2.38542e-015 -6.36111e-015 3.18055e-015 -2.38542e-015 -0 1.59028e-015 -1.59028e-015 -6.36111e-015 1.59028e-015 -2.38542e-015 -6.36111e-015 0.014948 -9.19613e-005 3.17891e-006 -1.59028e-015 -5.56597e-015 -0 1.59028e-015 -2.38542e-015 -6.36111e-015 0.0190092 -0.00118701 -6.39397e-005 -1.59028e-015 0 -0 1.59028e-015 -2.38542e-015 -6.36111e-015 0.012257 -0.00324419 -0.000677798 -1.59028e-015 2.38542e-015 3.18055e-015 1.59028e-015 -2.38542e-015 -6.36111e-015 3.18055e-015 -2.38542e-015 -0 1.59028e-015 -1.59028e-015 -6.36111e-015 -43.9697 -42.3933 -1.13235 177.363 76.9012 179.134 -33.067 25.5494 12.3005 -3.72738e-006 -3.95285e-006 -1.43813e-006 42.3358 -7.02751 -4.8867 -36.9543 31.8839 17.4956 18.323 41.6904 13.8101 -1.01838e-006 8.6409e-007 -1.7709e-006 
